<svg xmlns="http://www.w3.org/2000/svg" viewBox="0 0 512 512" width="512" height="512">
  <rect width="512" height="512" fill="#0f1724"/>
  <g>
    <rect x="246" y="36" width="20" height="56" rx="4" fill="#e0b84a" transform="rotate(0 256 256)"/>
    <rect x="246" y="36" width="20" height="56" rx="4" fill="#e0b84a" transform="rotate(30 256 256)"/>
    <rect x="246" y="36" width="20" height="56" rx="4" fill="#e0b84a" transform="rotate(60 256 256)"/>
    <rect x="246" y="36" width="20" height="56" rx="4" fill="#e0b84a" transform="rotate(90 256 256)"/>
    <rect x="246" y="36" width="20" height="56" rx="4" fill="#e0b84a" transform="rotate(120 256 256)"/>
    <rect x="246" y="36" width="20" height="56" rx="4" fill="#e0b84a" transform="rotate(150 256 256)"/>
    <rect x="246" y="36" width="20" height="56" rx="4" fill="#e0b84a" transform="rotate(180 256 256)"/>
    <rect x="246" y="36" width="20" height="56" rx="4" fill="#e0b84a" transform="rotate(210 256 256)"/>
    <rect x="246" y="36" width="20" height="56" rx="4" fill="#e0b84a" transform="rotate(240 256 256)"/>
    <rect x="246" y="36" width="20" height="56" rx="4" fill="#e0b84a" transform="rotate(270 256 256)"/>
    <rect x="246" y="36" width="20" height="56" rx="4" fill="#e0b84a" transform="rotate(300 256 256)"/>
    <rect x="246" y="36" width="20" height="56" rx="4" fill="#e0b84a" transform="rotate(330 256 256)"/>
  </g>
  <circle cx="256" cy="256" r="200" fill="#182233" stroke="#2fae6b" stroke-width="14"/>
  <circle cx="256" cy="256" r="148" fill="none" stroke="#e0b84a" stroke-width="8" stroke-dasharray="10 14"/>
  <text x="256" y="300" font-family="Arial, Helvetica, sans-serif" font-size="190" font-weight="700" fill="#2fae6b" text-anchor="middle">$</text>
</svg>
